<?xml version="1.0" encoding="utf-8"?>
<!-- Generator: Adobe Illustrator 26.1.0, SVG Export Plug-In . SVG Version: 6.00 Build 0)  -->
<svg version="1.1" id="Layer_1" xmlns="http://www.w3.org/2000/svg" xmlns:xlink="http://www.w3.org/1999/xlink" x="0px" y="0px"
	 viewBox="0 0 612 512.93" style="enable-background:new 0 0 612 512.93;" xml:space="preserve">
<style type="text/css">
	.st0{fill:#E9ECF3;}
</style>
<path class="st0" d="M241.16,373.46c-37.02-35.8-84.67-14.5-117.4,17.43c-3.98,2.84-7.9,5.8-11.73,9.01
	c-2.9,1.79-5.82,3.53-8.78,5.15c-5.91,3.23-11.97,5.96-18.37,7.51c-16.31,3.95-35.19-3.41-40.36-24.7
	c-2.2-9.04-0.57-17.88,2.75-26.28c5.49-13.89,10.29-28.16,18.21-40.64c5.29-8.33,6.4-17.72,3.97-27.66l-12.22,24.31l-5.46-25.53
	c-0.18-4.32-3.81-7.93-2.3-12.48c2.12-6.38,6.25-10.98,11.34-14.21c6.01-3.81,11.15-10.01,18.74-9.73
	c6.89,0.26,13.86,0.32,19.97,4.8c1.82,1.33,3.97,1.09,5.83,2.5c3.24,2.46,6.59,4.38,10.01,5.86c3.42,1.47,6.93,2.5,10.49,3.17
	c5.22-0.35,10.42-0.72,15.61-1.1c36.56-2.44,71.91-5.98,108.61-2.22c5.21,0.43,10.43,0.99,15.67,1.67s10.5,1.5,15.77,2.47
	c5.13-0.1,10.24-0.28,15.34-0.42c5.3-0.95,10.4-0.81,15.36,0.09c24.14,4.86,44.12,27.93,70.26,26.16c4.8-0.44,9.58-1.16,14.35-2.11
	c33.33-6.59,65.8-23.93,99.54-32.27c3.02-1.36,6.02-2.82,9.04-4.28c7.47-3.62,15.01-6.81,23.28-7.54c9.64-0.85,17.7,3.46,25.65,8.74
	c9.58,6.36,11.86,21.77,9.27,31.8c-2.72,10.54-6.21,21.26-12.13,29.4c-7.07,9.72-10.16,21.42-15.65,31.81
	c-2.53,4.78-1.52,10.19-0.69,15.33c0.46,2.88,2.62,3.89,4.82,3.77c2.49-0.14,2.85-2.81,3.01-4.97c0.76-10.42,4.65-19.49,8.94-28.41
	c0.72-1.5,1.56-3.33,3.14-3.13c1.9,0.24,1.47,2.44,1.7,4.06c1.6,10.93,3.28,21.83,3.57,32.96c0.13,4.9-0.8,9.17-3.05,13.35
	c-2.28,4.25-4.23,8.65-5.67,13.54c-2.68,9.05-15.21,15.8-23.34,13.36c-5.64-1.69-10.89-4.12-15.85-7.23
	c-4.97-3.11-9.65-6.89-14.22-11.34c-18.74-16.69-39.82-23.04-61.77-24.59c-4.39-0.31-8.81-0.43-13.25-0.4
	c-4.32,0.78-8.65,1.38-12.98,1.83c-4.33,0.44-8.66,0.72-12.94,0.84c-48.58-5.31-97.77-7.08-146.64,2.63
	C246.93,374.9,243.72,374.06,241.16,373.46z"/>
<path d="M265.77,382.99c54.29-1.86,87.48-15.16,141.98-6.16c4.84,0.28,9.68,0.66,14.53,1.17c4.44,0.31,8.86,0.78,13.25,1.43
	c21.96,3.28,43.06,11.28,62.32,27.62c5.49,3.49,10.91,6.97,16.34,10.43c9.77,6.23,26.74,8.91,35.82-2.18
	c1.56-1.8,3.12-3.61,4.69-5.41c0.38-1.1,1.06-1.85,1.98-2.33c4.43-6.82,7.82-14.48,10.68-22.13c4.46-11.94,3.56-24.9-0.55-36.72
	c-3.87-11.15-1.97-20.66,2.22-30.72c4.24-10.19,5.99-21.36,8.6-32.21c2.46-10.27-1.84-18.52-5.96-24.75
	c-7.42-11.21-18.18-18.56-31.13-19.79c-3.4-0.32-6.78-0.93-10.18-1.08c-7.28-0.32-13.86,3.34-20.78,5.08
	c-1.23,0.31-2.52,0.35-3.78,0.51c-0.08,0.31-0.23,0.56-0.46,0.76c0,0,0.17-0.23,0.18-0.23c-3.72,2.28-7.46,4.49-11.31,6.47
	c-36.41,13.9-73.3,36.97-111.73,36.97c-4.61-0.3-9.1-1.38-13.5-2.96c-9.55-2.36-17.24-9.46-26.02-13.14
	c-4.34-2.41-8.71-4.73-13.17-6.68c-8.93-3.9-18.22-6.29-28.31-4.86c-4.06,0.41-8.12,0.89-12.21,0.74
	c-15.85-2.05-31.5-3.8-47.06-5.03c-5.19-0.41-10.36-0.76-15.53-1.05c-25.58-0.74-51.72-0.74-77.34,1.78
	c-5.17,0.59-10.35,1.29-15.55,2.11c-4.81-0.81-9.39-2.47-13.83-4.47c-4.45-2-8.77-4.33-13.05-6.6c-11.87-6.29-23.47-8.52-35.98-4.24
	c-1.26,0.43-2.51,0.82-3.81,0.26c-3.84,0.52-7.16,2.85-10.24,5.06c-7.46,5.36-14.92,11.03-17.92,21.44
	c-1.89,6.54-2.29,13.33-0.95,20c1.7,8.45,4.32,16.59,7.29,24.58c2.82,7.58,3.67,15.08-0.34,22.73c-2.25,4.28-3.23,9.3-5.1,13.89
	c-3.63,8.89-4.84,18.65-6.35,28.27c-2.13,13.61,1.24,24.34,10.11,30.53c4.6,3.21,9.27,6.55,14.28,8.69
	c10.92,4.67,22.25,6.12,33.45,1.35c4.05-1.72,8.06-3.58,12.04-5.54s7.91-2.03,11.84-4.24c35.15-31.9,68.16-64.53,125.57-33.02
	C247.67,384.54,265.77,382.99,265.77,382.99z M196.06,350.69c-27.27,1.16-48.79,22.46-70.82,40.1c-4.46,3.15-8.87,6.12-13.21,9.1
	c-2.9,1.79-5.82,3.53-8.78,5.15c-5.91,3.23-11.97,5.96-18.37,7.51c-16.31,3.95-35.19-3.41-40.36-24.7
	c-2.2-9.04-0.57-17.88,2.75-26.28c5.49-13.89,10.29-28.16,18.21-40.64c5.29-8.33,6.4-17.72,3.97-27.66l-0.05,0.11
	c-4.32-1.21-6.69,0.35-6.27,5.88c0.08,1.12,0.11,2.26-0.72,3.11c-0.13,0.52-0.26,1.04-0.38,1.55c-0.87,2.59-2.35,4.92-4.81,4.64
	c-2.28-0.26-2.18-3.36-2.75-5.35c-1.05-3.66-1.81-7.44-2.69-11.17c-0.18-4.32-3.81-7.93-2.3-12.48c2.12-6.38,6.25-10.98,11.34-14.21
	c6.01-3.81,11.15-10.01,18.74-9.73c6.89,0.26,13.86,0.32,19.97,4.8c1.82,1.33,3.97,1.09,5.83,2.5c3.24,2.46,6.59,4.38,10.01,5.86
	c3.42,1.47,6.93,2.5,10.49,3.17c5.22-0.35,10.42-0.72,15.61-1.1c36.56-2.44,71.91-5.98,108.61-2.22c5.21,0.43,10.43,0.99,15.67,1.67
	s10.5,1.5,15.77,2.47c5.13-0.1,10.24-0.28,15.34-0.42c5.3-0.95,10.4-0.81,15.36,0.09c24.14,4.86,44.12,27.93,70.26,26.16
	c4.8-0.44,9.58-1.16,14.35-2.11c33.33-6.59,65.8-23.93,99.54-32.27c3.02-1.36,6.02-2.82,9.04-4.28c7.47-3.62,15.01-6.81,23.28-7.54
	c9.64-0.85,17.7,3.46,25.65,8.74c9.58,6.36,11.86,21.77,9.27,31.8c-2.72,10.54-6.21,21.26-12.13,29.4
	c-7.07,9.72-10.16,21.42-15.65,31.81c-2.53,4.78-1.52,10.19-0.69,15.33c0.46,2.88,2.62,3.89,4.82,3.77
	c2.49-0.14,2.85-2.81,3.01-4.97c0.76-10.42,4.65-19.49,8.94-28.41c0.72-1.5,1.56-3.33,3.14-3.13c1.9,0.24,1.47,2.44,1.7,4.06
	c1.6,10.93,3.28,21.83,3.57,32.96c0.13,4.9-0.8,9.17-3.05,13.35c-2.28,4.25-4.23,8.65-5.67,13.54c-2.68,9.05-15.21,15.8-23.34,13.36
	c-5.64-1.69-10.89-4.12-15.85-7.23c-4.97-3.11-9.65-6.89-14.22-11.34c-18.74-15.21-40.09-22.23-62.34-24.93
	c-4.45-0.54-8.94-0.9-13.43-1.12c-4.22,0.02-8.44,0.05-12.67,0.07c-4.21,0-8.42,0-12.58-0.07c-46.96-6.9-93.08-5.12-141.21,3.01
	c-3.9-0.42-7.69-1.22-11.43-2.23c-11.08-3.28-21.77-8.65-32.39-14.96C203.05,351.9,196.06,350.69,196.06,350.69z"/>
<path class="st0" d="M482,258.09c-33.44,10.34-64.19,31.64-99.54,31.64c-4.61-0.3-9.1-1.38-13.5-2.96
	c-9.55-2.36-17.24-9.46-26.02-13.14c-4.34-2.41-8.71-4.73-13.17-6.68c-8.93-3.9-18.22-6.29-28.31-4.86
	c-4.06,0.41-8.12,0.89-12.21,0.74c-15.85-2.05-31.5-3.8-47.06-5.03c-5.19-0.41-10.36-0.76-15.53-1.05
	c-25.58-0.74-51.72-0.74-77.34,1.78c-5.17,0.59-10.35,1.29-15.55,2.11c-4.81-0.81-9.39-2.47-13.83-4.47c-4.45-2-8.77-4.33-13.05-6.6
	c-11.87-6.29-23.47-8.52-35.98-4.24c-1.26,0.43-2.51,0.82-3.81,0.26c2.89-5.04,7.84-2.54,11.71-4.12c3.58-1.47,7.56-1.79,11.39-2.18
	c2.94-0.3,5.65,0.09,8.72,1.63c6.11,3.07,12.19,6.35,18.36,9.33c3.08,1.49,6.19,2.89,9.34,4.15c5.45,0.16,10.87,0.25,16.28,0.29
	c5.41,0.04,10.8,0.04,16.17,0c22.03-0.47,42.01-0.47,64.05-0.34c5.32,0.09,10.64,0.24,15.97,0.46c15.98,0.68,32,2.06,48.16,4.72
	c3.43-0.01,6.84-0.03,10.26-0.08c4.56-0.08,9.11-0.21,13.63-0.38c7.23-0.65,13.91-0.09,19.95,1.97s11.41,5.61,16.03,10.93
	c9.22,7.1,16.91,15.97,29.53,15.07c5.01,0.66,10.06,0.53,15.12-0.15c25.3-3.42,50.95-20.87,74.5-24.88
	C471.81,260.66,477.07,259.37,482,258.09z"/>
<path class="st0" d="M556.65,407.6c4.43-6.82,7.83-14.5,10.69-22.15c4.46-11.94,3.56-24.9-0.55-36.72
	c-3.87-11.15-1.97-20.66,2.22-30.72c4.24-10.19,5.99-21.36,8.6-32.21c2.46-10.27-1.84-18.52-5.96-24.75
	c-7.42-11.21-18.18-18.56-31.13-19.79c-3.4-0.32-6.78-0.93-10.18-1.08c-7.28-0.32-13.86,3.34-20.78,5.08
	c-1.23,0.31-2.52,0.35-3.78,0.51c9.11-7.03,19.65-7.21,30.01-8.56c10.75-1.4,20.3,3.55,28.79,9.25
	c6.93,4.65,12.87,12.24,15.29,22.41c4.43,18.67-2.04,34.85-8.41,50.85c-3.4,8.54-3.98,16.48-1.03,24.94
	c7.38,21.15,2.88,45.95-11.33,61.83C558.51,407.13,558.07,409.04,556.65,407.6z"/>
<path class="st0" d="M550,415.31c1.58-1.82,3.16-3.65,4.74-5.47C554.87,413.63,552.67,414.74,550,415.31z"/>
<path class="st0" d="M554.68,409.91c0.38-1.12,1.08-1.88,2.02-2.35C556.91,410,556.47,410.52,554.68,409.91z"/>
<polygon class="st0" points="505.32,246.52 505.5,246.29 505.29,246.28 "/>
<path class="st0" d="M62.02,303.93c-0.18-0.63-0.61-1.35,0.39-1.59C62.28,302.86,62.15,303.39,62.02,303.93z"/>
<path class="st0" d="M226.04,307.55c4.99,0.54,10.63,0.54,12.5,4.3c14.46,20.37,34.44,21.43,53.5,14.43c2.72-1,5.43-2.16,8.09-3.46
	c6.01-2.52,12.58-10.03,17.28-7.21c30.98,22.53,61.97,15.02,83.4-10.28"/>
<path class="st0" d="M175.35,161.24c-4.53,6.67-6.87,14.01-8.5,21.96c-2.32,11.28-5.89,22.41-17.33,28.4
	c7.19-9.27,10.96-19.81,13.36-31.3C164.43,172.83,166.57,164.53,175.35,161.24z"/>
<path class="st0" d="M233.34,107.24c-4.88,9.31-12.53,16.65-18.14,25.43c-3.88,6.08-7.76,12.07-14.32,15.66
	c5.28-10.26,14.12-18.01,19.81-28c1.94-3.41,4.23-6.65,6.59-9.8C228.72,108.6,230.5,106.82,233.34,107.24z"/>
<path class="st0" d="M237.82,103.02c-1.56,1.44-3.11,2.88-4.67,4.31C234.71,105.9,236.26,104.46,237.82,103.02z"/>
<path class="st0" d="M239.45,101.55c0,0-0.1,0-0.1,0S239.45,101.55,239.45,101.55z"/>
<path class="st0" d="M187.4,296.61c-13.47,0.6-26.58-2.66-39.88-3.89c-8.1-0.75-14.28-9.41-13.6-20.25
	c0.78-12.6,2.43-24.95,10.33-36.11c5.84-8.25,11.56-15.95,20.52-20.76c6.5-3.49,9.51-9.63,12.12-15.9
	c3.9-9.38,9.06-18.18,12.31-27.88c1.55-4.62,4.96-8.03,10.66-7.89c3.3,0.08,5.86-2.12,8.45-3.76c7.32-4.62,14.73-8.59,23.53-10.06
	c4.6-0.77,9.27-3.08,12.12-7.43c0.65-1,2.14-1.88,1.32-3.48c-0.93-1.83-2.75-1.46-4.16-1.26c-2.61,0.38-5.16,1.23-7.74,1.85
	c-1.56,0.37-3.34,0.68-3.94-1.25c-0.36-1.17-0.43-3.23,0.27-3.8c5.88-4.84,7.93-12.37,13.72-17.64c9.6-8.76,20.31-10.57,32.24-9.88
	c3.92,0.23,7.12,3.28,11.34,2.88c11.33-1.09,22.76-0.75,33.04-7.52c4.01-2.64,9.6-0.1,14.29,1.35c11.65,3.6,21.74,10.01,31.7,16.95
	c9.86,6.86,20.12,13.35,30.89,18.6c7.82,3.81,15.06,8.67,23.12,12.02c4.86,2.02,8.36,5.41,9.71,10.98
	c3.28,13.47,9.15,25.24,18.46,36.14c4.7,5.5,8.98,12.27,13.96,17.82c4.03,4.48,9.47,8.16,11.82,13.67
	c6.26,14.65,5.4,29.46-1.25,43.93c-0.09,0.2-0.24,0.38-0.35,0.57c-10.98,19.37-16.43,21.74-38.06,16.67
	c-3.75-0.88-5.54-2.52-5.09-6.89c1.78-17.43,6.01-34.16,13.33-50.09c4.22-9.18,3.86-10.99-3.73-17.79
	c-7.7-6.9-14.47-14.69-21.12-22.57c-14.55-17.23-31.8-32.04-45.14-50.35c-2.58-3.54-4.37-3.34-6.47,0.81
	c-2.08,4.11-0.42,6.94,2.01,9.63c7.19,7.97,9.83,18.3,14.63,27.51c1.26,2.42,1.17,4.99-1.67,6.02c-6.3,2.3-3.04,5.5-0.89,8.35
	c3.12,4.15,5.04,8.45,5.42,13.83c0.54,7.5-3.18,11.67-9.14,14.85c-6.29,3.35-6.01,3.71-1.04,8.29
	c10.36,9.54,16.14,20.32,17.16,31.43c0.26,2.78,0.21,5.57-0.13,8.38c-1.81,11.94-6.51,23.21-14.02,33.54
	c-10.33,13.14-30.05,12.21-42.25,1.88c-8.45-7.51-14.08-20.66-7.51-29.11c1.88-2.82,9.39-0.94,13.14-4.69
	c1.88-2.82,1.88-5.63,2.54-8.66c0.32-2.56,0.3-4.91,0-7.08c-1.49-10.87-10.09-17.76-21.22-18.69c-6.43-0.54-13.02-0.02-19.47,0.69
	c-6.09,0.67-12.11,3.63-16,8.27c-1.35,1.63-2.46,3.44-3.28,5.45c-6.92,15.12,4.97,21.55,15.1,28.16c2.03,1.32,3.98,2.65,5.7,4.06
	c5.63,5.63,0,14.08-3.43,18.48c-1.61,2.23-3.37,4.28-5.02,5.93c-7.51,6.57-17.84,7.51-27.23,6.57
	c-26.29-5.63-30.05-35.68-23.81-56.91c1.49-3.93,0.16-5.65-2.78-7.62c-2.43-1.63-5.65-3.34-5.04-6.87c0.75-4.35,4.52-5.34,8.3-5.5
	c3.4-0.15,5.82-1.89,6.24-4.93c0.45-3.21-2.25-4.45-5.15-5c-11.65-2.22-15.65-11.09-16.58-21.15c-1.2-12.88,0.51-25.47,9.56-35.88
	c1.01-1.16,1.73-2.6,2.39-4c1.12-2.38,1.48-4.87-1.01-6.6c-2.29-1.59-3.98-0.08-5.86,1.38c-16.4,12.72-21.62,39.8-16.55,56
	c4.03,12.86,7.65,25.9,7.65,39.84c0,17.85-12.95,39.89-36.13,36.4C189.67,296.47,188.52,296.61,187.4,296.61z M343.74,167.76
	c-11.15,0.01-13.32,1.5-17.3,11.71c-3.87,9.93-2.72,19.54,1.48,29.08c3.55,8.08,14.69,15.26,22.82,14.46
	c9.25-0.91,16.41-7.65,18.66-17.52c0.2-0.87,0.58-1.7,0.76-2.57C373.56,186.51,359.45,167.74,343.74,167.76z M288.45,202.54
	c-0.03-8.36-3.26-17.31-9.42-22.89c-10.87-9.85-23.2-9.57-32.36,0.47c-6.05,6.63-5.7,15.84-4.01,24.63
	c2.34,12.17,13.4,23.67,22.54,22.12C280.38,224.31,288.06,218.58,288.45,202.54z M360.74,273.96c-0.61-3.62-2.15-5.65-4.91-5.68
	c-3.52-0.04-5.1,2.81-5.09,6.28c0.01,3.33,2.4,4.01,4.78,3.89C358.37,278.3,360.35,276.95,360.74,273.96z M283.33,298.22
	c-1.59-3.27-5.35-6.09-8.16-4.21c-3.76,2.82-2.82,10.33,2.77,11.05C280.49,304.99,282.73,303.05,283.33,298.22z M257.27,278.6
	c1,3.21,0.06,6.96,3.82,6.96c5.63-0.94,6.57-9.39,0.65-11.94C259.07,273.49,257.23,274.82,257.27,278.6z M349.33,294.73
	c-3.71-0.53-4.51,1.92-3.81,5.25c0.85,4.05,3.76,4.6,6.39,4.98c3.03,0.44,3.94-1.69,3.08-4.7
	C354.11,297.16,352.23,294.35,349.33,294.73z M373.89,289.78c-2.01-4.22-7.65-5.16-8.59-1.41c0,3.76,1.88,6.57,5.79,6.89
	C373.24,295.32,373.99,293.03,373.89,289.78z M263.62,299.75c-0.66-2.92-2.54-7.62-6.29-5.74c-2.82,2.82,0,7.51,3.05,9.9
	C262.88,304.64,263.67,302.68,263.62,299.75z"/>
<path class="st0" d="M387.17,223.58c-2.32-3.2,8.73-14.05,9.91-18.64c-2.09-2.37-3.97-5.53-1.17-7.74c2.59-2.05,4.61,0.22,6.67,2.95
	c4.22,5.58,9.3,10.56,14.34,15.47c8.29,8.06,9.64,13.68,5.75,24.44c-4.97,13.73-10.46,27.27-9.24,42.52
	c0.24,3.06-4.41,10.84-12.94,9.37L387.17,223.58z"/>
<path class="st0" d="M325.12,255.29c-1.32,1.91-2.84,3.5-4.48,4.73c-1.64,1.24-3.39,2.13-5.18,2.66c-4.62,0.34-9.31,1.28-13.07-2.48
	c-0.94-1.88,0.94-5.63,3.87-4.95c2.99,0.03,5.98,0.04,9.08,0.04S321.67,255.29,325.12,255.29z"/>
<path class="st0" d="M230.5,290.91c0.34,3.33-2.41,3.19-4.38,3.87c-1.77,0.61-3.06-1.19-2.86-1.88"/>
<path class="st0" d="M333.54,195.86c-3.67-9.48,1.01-20.37,11.52-19.14c0.89,0.1,2.08-0.17,2.62,0.3c3.1,2.78,10.09,2.59,9.08,8.07
	c-0.73,3.99-6.22,2.64-9.83,2.9C341.27,188.4,337.46,192.21,333.54,195.86z"/>
<path class="st0" d="M359.65,198.93c-9.07-1.37-15.68-0.51-18.73,8.39c-1.89-7.59-1.08-10.03,5.65-13.2
	C350.98,192.05,355.01,194.04,359.65,198.93z"/>
<path class="st0" d="M351.6,202.84c2.42,0.11,4.16,1.27,4.1,4.03c-0.06,2.99-2.68,4.66-4.75,4.82c-1.36,0.1-3.38-2.41-3.21-5.06
	C347.89,204.15,349,202.95,351.6,202.84z"/>
<path class="st0" d="M263.04,181.29c2.37-0.29,4.59,0.84,7.06,2.05c3.04,1.49,4.84,3.82,4.55,6.56c-0.35,3.31-4.64,3.39-6.45,3.05
	c-6.02-1.12-9.81,2.12-13.69,5.48c-2.38,2.06-3.45,2.14-4.13-1.36C248.68,188.18,253.87,181.33,263.04,181.29z"/>
<path class="st0" d="M258.59,214.06c-1.55-5.77-3.06-9.81,1-12.22c4.53-2.68,9.57-5.03,14.91-1.45c0.89,0.6,2.04,1.36,1.41,2.58
	c-0.28,0.55-1.6,1.11-2.18,0.9C265.68,201.01,262.03,205.98,258.59,214.06z"/>
<path class="st0" d="M274.89,212.01c-0.63,2.7-2.67,3.15-5.04,3.21c-3.61,0.08-4.44-1.94-4.4-5.13c0.04-2.69,1.2-3.14,3.64-3.32
	C273.13,206.48,273.55,209.6,274.89,212.01z"/>
<path d="M62.39,302.39c-1.06-2.75-0.83-5.41,0.39-8.01c1.81-3.85,3.94-4.85,6.62-1c-4.32-1.21-6.69,0.35-6.27,5.88
	C63.21,300.39,63.24,301.54,62.39,302.39z"/>
<path d="M556.7,407.55c-0.01,0.01-0.02,0.01-0.03,0.02c-0.01,0.01-0.01,0.02-0.02,0.03C556.65,407.6,556.7,407.55,556.7,407.55z"/>
<path d="M554.74,409.84c-0.02,0.02-0.04,0.04-0.05,0.06c0,0,0,0,0,0.01C554.68,409.91,554.74,409.84,554.74,409.84z"/>
<path d="M62.39,302.39c0.01-0.01,0.01-0.01,0.01-0.02c0-0.01,0.01-0.03,0.01-0.04L62.39,302.39z"/>
<path d="M400.83,305.3c-21.44,25.33-52.43,32.84-83.41,10.3c-4.69-2.82-11.27,4.69-17.28,7.21c-2.67,1.3-5.37,2.46-8.09,3.46
	c-19.06,7-39.04,5.95-53.5-14.43c-1.88-3.76-7.51-3.76-12.5-4.3c0,0-5.12,0.55-10.92,0.96c-5.8,0.41-12.29,0.67-15.04,0.09
	c-5.49-1.16-36.99-3.76-54.33-3.76s-19.1-12.38-20.46-14.65c-2.57-4.28-3.77-9.05-3.78-14.04c-0.03-8.89,1.83-17.46,3.33-26.19
	c3.45-20.05,15.88-33.77,24.68-38.38c11.45-5.99,15.02-17.11,17.33-28.4c1.63-7.95,3.97-15.29,8.5-21.96
	c7.46-6.39,17.32-8.02,25.53-12.91c6.55-3.59,10.43-9.58,14.32-15.66c5.61-8.78,13.26-16.12,18.14-25.43c0,0-0.19,0.1-0.19,0.1
	c1.56-1.44,3.12-2.87,4.67-4.31c0.51-0.49,1.02-0.99,1.53-1.48c0,0,0.1,0,0.1,0c14.56-8.65,30.27-9.83,46.63-7.46
	c7.91,1.15,15.13-1.74,22.75-3.63c13.62-3.37,27.79-4,41.69,1.24c15.57,5.87,27.76,17.05,41.85,25.22
	c10.14,5.88,20.04,12.15,30,18.34c9.12,5.67,16.83,12.57,20.46,23.16c7.05,20.59,18.61,38.48,33.74,53.95
	c21.2,21.67,19.01,46.87,7.58,69.22c-13.76,26.92-26.02,30.4-75.1,24.53C406.38,305.91,403.66,305.61,400.83,305.3z M410.7,291.28
	c8.53,1.47,6.62-6.17,6.38-9.22c-1.21-15.25,4.28-28.79,9.24-42.52c3.89-10.76,2.54-16.38-5.75-24.44
	c-5.04-4.9-10.12-9.89-14.34-15.47c-2.06-2.73-4.08-4.99-6.67-2.95c-2.8,2.21,0.7,4.95,1.17,7.74c-0.34,6.78,1.96,13.99-2.99,20.05
	c-2.76,3.38-1.51,6.02,0.44,9.41c3.46,6.03,7.24,12.27,8.78,18.91c2.44,10.5,1.45,21.29-1.82,31.72c-0.7,2.25-2.69,4.46-1,6.91
	C406.25,294.5,408.48,290.62,410.7,291.28z M187.4,296.61c1.12,0,2.27-0.14,3.36,0.02c23.18,3.49,36.13-18.55,36.13-36.4
	c0-13.94-3.62-26.97-7.65-39.84c-5.07-16.2,0.14-43.28,16.55-56c1.88-1.46,3.57-2.97,5.86-1.38c2.49,1.73,2.13,4.22,1.01,6.6
	c-0.66,1.4-1.38,2.85-2.39,4c-9.05,10.41-10.76,23-9.56,35.88c0.93,10.06,4.93,18.93,16.58,21.15c2.9,0.55,5.6,1.79,5.15,5
	c-0.42,3.04-2.84,4.78-6.24,4.93c-3.79,0.17-7.55,1.15-8.3,5.5c-0.61,3.53,2.61,5.24,5.04,6.87c2.94,1.97,4.27,3.69,2.78,7.62
	c-6.24,21.23-2.48,51.28,23.81,56.91c10.33,1.88,20.89-1.41,28.05-7.28c2.39-1.96,4.39-4.2,5.89-6.63
	c2.68-4.87,3.61-10.51,1.74-16.14c-0.78-1.72-2.14-3.26-3.81-4.72c-8.37-7.29-24.69-12.55-16.99-28.45
	c0.82-2.01,1.93-3.82,3.28-5.45c3.89-4.65,9.91-7.6,16-8.27c6.45-0.71,13.04-1.23,19.47-0.69c11.13,0.93,19.73,7.83,21.22,18.69
	c0.3,2.17,0.31,4.52,0,7.08c-0.67,3.02-0.67,5.84-2.54,8.66c-3.76,3.76-11.27,1.88-13.14,4.69c-6.57,8.45-0.94,21.6,7.51,29.11
	c12.21,10.33,31.92,11.27,42.25-1.88c7.51-10.33,12.21-21.6,14.02-33.54c0.34-2.8,0.39-5.6,0.13-8.38
	c-1.02-11.11-6.8-21.89-17.16-31.43c-4.97-4.58-5.25-4.94,1.04-8.29c5.96-3.18,9.68-7.35,9.14-14.85c-0.39-5.38-2.3-9.68-5.42-13.83
	c-2.14-2.85-5.41-6.06,0.89-8.35c2.84-1.03,2.92-3.6,1.67-6.02c-4.79-9.21-7.44-19.54-14.63-27.51c-2.43-2.69-4.09-5.52-2.01-9.63
	c2.1-4.15,3.9-4.35,6.47-0.81c13.34,18.32,30.59,33.12,45.14,50.35c6.65,7.87,13.42,15.67,21.12,22.57
	c7.59,6.79,7.95,8.6,3.73,17.79c-7.32,15.93-11.56,32.66-13.33,50.09c-0.45,4.36,1.35,6.01,5.09,6.89
	c21.62,5.07,27.08,2.7,38.06-16.67c0.11-0.19,0.25-0.37,0.35-0.57c6.65-14.47,7.5-29.28,1.25-43.93
	c-2.35-5.51-7.79-9.19-11.82-13.67c-4.98-5.54-9.26-12.31-13.96-17.82c-9.31-10.9-15.18-22.67-18.46-36.14
	c-1.35-5.56-4.85-8.95-9.71-10.98c-8.05-3.35-15.3-8.21-23.12-12.02c-10.77-5.25-21.04-11.74-30.89-18.6
	c-9.96-6.93-20.05-13.35-31.7-16.95c-4.68-1.45-10.28-3.99-14.29-1.35c-10.29,6.78-21.71,6.43-33.04,7.52
	c-4.22,0.41-7.42-2.65-11.34-2.88c-11.93-0.69-22.64,1.13-32.24,9.88c-5.78,5.27-7.84,12.8-13.72,17.64
	c-0.7,0.57-0.63,2.63-0.27,3.8c0.6,1.93,2.38,1.62,3.94,1.25c2.58-0.61,5.13-1.46,7.74-1.85c1.4-0.21,3.23-0.57,4.16,1.26
	c0.82,1.6-0.67,2.48-1.32,3.48c-2.84,4.35-7.52,6.66-12.12,7.43c-8.8,1.47-16.21,5.44-23.53,10.06c-2.59,1.63-5.16,3.84-8.45,3.76
	c-5.7-0.14-9.11,3.26-10.66,7.89c-3.25,9.7-8.41,18.5-12.31,27.88c-2.61,6.27-5.62,12.41-12.12,15.9
	c-8.96,4.81-14.68,12.51-20.52,20.76c-7.9,11.16-9.55,23.51-10.33,36.11c-0.67,10.84,5.51,19.51,13.6,20.25
	C160.81,293.95,173.92,297.21,187.4,296.61z M325.12,255.29c-3.44,0-6.66,0.01-9.77,0.01s-6.09-0.01-9.08-0.04
	c-1.99,0.25-5.75,0.25-2.93,4.95c1.88,3.76,7.51,2.82,12.13,2.48c1.79-0.54,3.54-1.43,5.18-2.66
	C322.28,258.78,323.79,257.2,325.12,255.29z M230.5,290.91c-0.09-1.21-0.4-2.4-1.93-1.75c-2.04,0.86-4.61,1.33-5.32,3.74
	c-0.2,0.69,1.09,2.49,2.86,1.88C228.09,294.09,230.84,294.23,230.5,290.91z"/>
<path d="M343.74,167.76c15.71-0.01,29.81,18.75,26.41,35.16c-0.18,0.87-0.56,1.7-0.76,2.57c-2.24,9.87-9.41,16.61-18.66,17.52
	c-8.13,0.8-19.27-6.38-22.82-14.46c-4.2-9.54-5.35-19.16-1.48-29.08C330.42,169.25,332.59,167.76,343.74,167.76z M333.54,195.86
	c3.92-3.65,7.73-7.46,13.39-7.87c3.61-0.26,9.1,1.09,9.83-2.9c1-5.47-5.99-5.29-9.08-8.07c-0.53-0.48-1.73-0.2-2.62-0.3
	C334.55,175.48,329.87,186.38,333.54,195.86z M359.65,198.93c-4.64-4.89-8.68-6.88-13.07-4.81c-6.74,3.17-7.55,5.61-5.65,13.2
	C343.98,198.42,350.59,197.56,359.65,198.93z M351.6,202.84c-2.61,0.11-3.71,1.3-3.87,3.78c-0.17,2.66,1.85,5.17,3.21,5.06
	c2.07-0.16,4.69-1.83,4.75-4.82C355.76,204.11,354.03,202.95,351.6,202.84z"/>
<path d="M288.45,202.54c-0.39,16.04-8.07,21.77-23.24,24.33c-9.14,1.55-20.2-9.95-22.54-22.12c-1.69-8.79-2.04-18,4.01-24.63
	c9.16-10.04,21.49-10.32,32.36-0.47C285.19,185.23,288.42,194.18,288.45,202.54z M263.04,181.29c-9.17,0.04-14.35,6.89-12.64,15.78
	c0.67,3.5,1.75,3.42,4.13,1.36c3.88-3.36,7.66-6.6,13.69-5.48c1.81,0.34,6.1,0.26,6.45-3.05c0.29-2.74-1.51-5.06-4.55-6.56
	C267.63,182.13,265.4,181,263.04,181.29z M258.59,214.06c3.44-8.08,7.09-13.05,15.14-10.18c0.58,0.21,1.9-0.35,2.18-0.9
	c0.62-1.23-0.52-1.99-1.41-2.58c-5.34-3.58-10.38-1.23-14.91,1.45C255.53,204.25,257.03,208.29,258.59,214.06z M274.89,212.01
	c-1.35-2.42-1.76-5.54-5.8-5.24c-2.44,0.18-3.6,0.63-3.64,3.32c-0.04,3.19,0.79,5.21,4.4,5.13
	C272.23,215.17,274.26,214.72,274.89,212.01z"/>
<path d="M360.74,273.96c-0.39,2.99-2.37,4.35-5.22,4.49c-2.38,0.12-4.77-0.56-4.78-3.89c-0.01-3.48,1.57-6.32,5.09-6.28
	C358.59,268.31,360.13,270.33,360.74,273.96z"/>
<path d="M283.33,298.22c-0.6,4.83-2.84,6.77-5.39,6.84c-2.98,0.08-4.77-2.07-4.34-6.38c0.28-2.8,0.86-5.64,3.5-4.95
	C279.69,294.42,282.87,294.65,283.33,298.22z"/>
<path d="M257.27,278.6c0.06-2.43,1.94-6.18,4.75-5.24c5.63,1.88,4.69,10.33-1.35,12.39C256.76,285.46,258.14,281.26,257.27,278.6z"
	/>
<path d="M349.33,294.73c2.9-0.38,4.78,2.43,5.67,5.53c0.86,3.01-0.05,5.13-3.08,4.7c-2.63-0.38-5.54-0.93-6.39-4.98
	C344.82,296.64,345.62,294.2,349.33,294.73z"/>
<path d="M373.89,289.78c0.8,3.29-1.07,7.04-4.83,5.17c-3.76-1.88-5.63-8.45-0.45-9.2C371.4,285.34,372.71,287.62,373.89,289.78z"/>
<path d="M263.62,299.75c0.05,2.93-0.75,4.88-3.25,4.16c-2.86-0.83-3.87-3.99-4.04-6.84c-0.15-2.55,1.28-3.74,3.5-3.12
	C262.29,294.63,263.74,296.25,263.62,299.75z"/>
</svg>
